<mxfile host="app.diagrams.net" modified="2022-05-18T16:43:53.284Z" agent="5.0 (Windows NT 10.0; Win64; x64) AppleWebKit/537.36 (KHTML, like Gecko) Chrome/101.0.4951.54 Safari/537.36" etag="qXXNwqbs12AXoAPuR2tW" version="18.0.7" type="github">
  <diagram id="aYh7AivPlm6BtyjiQzOn" name="Page-1">
    <mxGraphModel dx="868" dy="482" grid="1" gridSize="10" guides="1" tooltips="1" connect="1" arrows="1" fold="1" page="1" pageScale="1" pageWidth="827" pageHeight="1169" math="0" shadow="0">
      <root>
        <mxCell id="0" />
        <mxCell id="1" parent="0" />
        <mxCell id="6W1pRGpgZ7paX0P09RJx-1" value="&lt;p style=&quot;line-height: 1.2;&quot;&gt;&lt;font style=&quot;font-size: 16px;&quot;&gt;Teacher&lt;/font&gt;&lt;/p&gt;" style="rounded=0;whiteSpace=wrap;html=1;" parent="1" vertex="1">
          <mxGeometry x="190" y="140" width="120" height="60" as="geometry" />
        </mxCell>
        <mxCell id="6W1pRGpgZ7paX0P09RJx-2" value="&lt;p style=&quot;line-height: 1.2;&quot;&gt;&lt;font style=&quot;font-size: 16px;&quot;&gt;students&lt;/font&gt;&lt;/p&gt;" style="rounded=0;whiteSpace=wrap;html=1;" parent="1" vertex="1">
          <mxGeometry x="610" y="140" width="120" height="60" as="geometry" />
        </mxCell>
        <mxCell id="6W1pRGpgZ7paX0P09RJx-37" style="edgeStyle=orthogonalEdgeStyle;rounded=0;orthogonalLoop=1;jettySize=auto;html=1;exitX=1;exitY=0.25;exitDx=0;exitDy=0;entryX=1;entryY=0.5;entryDx=0;entryDy=0;entryPerimeter=0;fontSize=19;fillColor=#f8cecc;strokeColor=#b85450;" parent="1" source="6W1pRGpgZ7paX0P09RJx-3" target="6W1pRGpgZ7paX0P09RJx-31" edge="1">
          <mxGeometry relative="1" as="geometry" />
        </mxCell>
        <mxCell id="6W1pRGpgZ7paX0P09RJx-40" style="edgeStyle=none;rounded=0;orthogonalLoop=1;jettySize=auto;html=1;exitX=0;exitY=0.5;exitDx=0;exitDy=0;entryX=0.7;entryY=0.9;entryDx=0;entryDy=0;entryPerimeter=0;fontSize=19;fillColor=#dae8fc;strokeColor=#6c8ebf;" parent="1" source="6W1pRGpgZ7paX0P09RJx-3" target="6W1pRGpgZ7paX0P09RJx-20" edge="1">
          <mxGeometry relative="1" as="geometry" />
        </mxCell>
        <mxCell id="6W1pRGpgZ7paX0P09RJx-42" style="edgeStyle=none;rounded=0;orthogonalLoop=1;jettySize=auto;html=1;exitX=1;exitY=0.75;exitDx=0;exitDy=0;entryX=0.7;entryY=0.9;entryDx=0;entryDy=0;entryPerimeter=0;fontSize=19;fillColor=#e1d5e7;strokeColor=#9673a6;" parent="1" source="6W1pRGpgZ7paX0P09RJx-3" target="6W1pRGpgZ7paX0P09RJx-32" edge="1">
          <mxGeometry relative="1" as="geometry" />
        </mxCell>
        <mxCell id="6W1pRGpgZ7paX0P09RJx-43" style="edgeStyle=none;rounded=0;orthogonalLoop=1;jettySize=auto;html=1;exitX=0.075;exitY=0.967;exitDx=0;exitDy=0;entryX=1;entryY=0.5;entryDx=0;entryDy=0;entryPerimeter=0;fontSize=19;exitPerimeter=0;fillColor=#d5e8d4;strokeColor=#82b366;" parent="1" source="6W1pRGpgZ7paX0P09RJx-3" target="6W1pRGpgZ7paX0P09RJx-21" edge="1">
          <mxGeometry relative="1" as="geometry" />
        </mxCell>
        <mxCell id="6W1pRGpgZ7paX0P09RJx-44" style="edgeStyle=none;rounded=0;orthogonalLoop=1;jettySize=auto;html=1;fontSize=19;exitX=1;exitY=0.5;exitDx=0;exitDy=0;exitPerimeter=0;entryX=0.942;entryY=0.95;entryDx=0;entryDy=0;fillColor=#d5e8d4;strokeColor=#82b366;entryPerimeter=0;" parent="1" source="6W1pRGpgZ7paX0P09RJx-32" target="6W1pRGpgZ7paX0P09RJx-3" edge="1">
          <mxGeometry relative="1" as="geometry">
            <mxPoint x="560" y="460" as="sourcePoint" />
          </mxGeometry>
        </mxCell>
        <mxCell id="6W1pRGpgZ7paX0P09RJx-3" value="AgoraRTC" style="rounded=1;whiteSpace=wrap;html=1;fontSize=16;" parent="1" vertex="1">
          <mxGeometry x="370" y="340" width="120" height="60" as="geometry" />
        </mxCell>
        <mxCell id="6W1pRGpgZ7paX0P09RJx-45" style="edgeStyle=none;rounded=0;orthogonalLoop=1;jettySize=auto;html=1;exitX=0.7;exitY=0.1;exitDx=0;exitDy=0;fontSize=19;exitPerimeter=0;entryX=0.425;entryY=0.05;entryDx=0;entryDy=0;entryPerimeter=0;" parent="1" source="6W1pRGpgZ7paX0P09RJx-32" target="6W1pRGpgZ7paX0P09RJx-14" edge="1">
          <mxGeometry relative="1" as="geometry">
            <mxPoint x="480" y="470" as="targetPoint" />
          </mxGeometry>
        </mxCell>
        <mxCell id="6W1pRGpgZ7paX0P09RJx-47" style="edgeStyle=none;rounded=0;orthogonalLoop=1;jettySize=auto;html=1;exitX=0;exitY=0.5;exitDx=0;exitDy=0;entryX=1;entryY=0.5;entryDx=0;entryDy=0;fontSize=19;" parent="1" source="6W1pRGpgZ7paX0P09RJx-14" target="6W1pRGpgZ7paX0P09RJx-46" edge="1">
          <mxGeometry relative="1" as="geometry" />
        </mxCell>
        <mxCell id="6W1pRGpgZ7paX0P09RJx-14" value="fatigue detection" style="ellipse;whiteSpace=wrap;html=1;fontSize=16;" parent="1" vertex="1">
          <mxGeometry x="520" y="510" width="120" height="80" as="geometry" />
        </mxCell>
        <mxCell id="6W1pRGpgZ7paX0P09RJx-15" value="&lt;span style=&quot;&quot;&gt;&lt;font style=&quot;font-size: 19px;&quot;&gt;&lt;b&gt;Teacher&lt;/b&gt;&lt;/font&gt;&lt;/span&gt;" style="rounded=0;whiteSpace=wrap;html=1;fontSize=16;" parent="1" vertex="1">
          <mxGeometry x="70" y="320" width="200" height="110" as="geometry" />
        </mxCell>
        <mxCell id="6W1pRGpgZ7paX0P09RJx-38" style="edgeStyle=orthogonalEdgeStyle;rounded=0;orthogonalLoop=1;jettySize=auto;html=1;exitX=1;exitY=0.5;exitDx=0;exitDy=0;exitPerimeter=0;entryX=0;entryY=0.25;entryDx=0;entryDy=0;fontSize=19;fillColor=#f8cecc;strokeColor=#b85450;" parent="1" source="6W1pRGpgZ7paX0P09RJx-20" target="6W1pRGpgZ7paX0P09RJx-3" edge="1">
          <mxGeometry relative="1" as="geometry" />
        </mxCell>
        <mxCell id="6W1pRGpgZ7paX0P09RJx-20" value="" style="shape=or;whiteSpace=wrap;html=1;fontSize=16;" parent="1" vertex="1">
          <mxGeometry x="260" y="340" width="22.5" height="30" as="geometry" />
        </mxCell>
        <mxCell id="6W1pRGpgZ7paX0P09RJx-41" style="edgeStyle=none;rounded=0;orthogonalLoop=1;jettySize=auto;html=1;exitX=0.7;exitY=0.1;exitDx=0;exitDy=0;exitPerimeter=0;entryX=0;entryY=0.75;entryDx=0;entryDy=0;fontSize=19;fillColor=#e1d5e7;strokeColor=#9673a6;" parent="1" source="6W1pRGpgZ7paX0P09RJx-21" target="6W1pRGpgZ7paX0P09RJx-3" edge="1">
          <mxGeometry relative="1" as="geometry" />
        </mxCell>
        <mxCell id="6W1pRGpgZ7paX0P09RJx-21" value="" style="shape=or;whiteSpace=wrap;html=1;fontSize=16;" parent="1" vertex="1">
          <mxGeometry x="260" y="390" width="22.5" height="30" as="geometry" />
        </mxCell>
        <mxCell id="6W1pRGpgZ7paX0P09RJx-10" value="videoModule" style="text;html=1;strokeColor=none;fillColor=none;align=center;verticalAlign=middle;whiteSpace=wrap;rounded=0;fontSize=16;" parent="1" vertex="1">
          <mxGeometry x="180" y="390" width="60" height="30" as="geometry" />
        </mxCell>
        <mxCell id="6W1pRGpgZ7paX0P09RJx-22" value="audioModule" style="text;html=1;strokeColor=none;fillColor=none;align=center;verticalAlign=middle;whiteSpace=wrap;rounded=0;fontSize=16;" parent="1" vertex="1">
          <mxGeometry x="180" y="340" width="60" height="30" as="geometry" />
        </mxCell>
        <mxCell id="6W1pRGpgZ7paX0P09RJx-30" value="&lt;span style=&quot;&quot;&gt;&lt;font style=&quot;font-size: 19px;&quot;&gt;&lt;b&gt;Students&lt;/b&gt;&lt;/font&gt;&lt;/span&gt;" style="rounded=0;whiteSpace=wrap;html=1;fontSize=16;" parent="1" vertex="1">
          <mxGeometry x="575" y="320" width="200" height="110" as="geometry" />
        </mxCell>
        <mxCell id="6W1pRGpgZ7paX0P09RJx-39" style="rounded=0;orthogonalLoop=1;jettySize=auto;html=1;exitX=0.7;exitY=0.1;exitDx=0;exitDy=0;exitPerimeter=0;fontSize=19;fillColor=#dae8fc;strokeColor=#6c8ebf;" parent="1" source="6W1pRGpgZ7paX0P09RJx-31" target="6W1pRGpgZ7paX0P09RJx-3" edge="1">
          <mxGeometry relative="1" as="geometry" />
        </mxCell>
        <mxCell id="6W1pRGpgZ7paX0P09RJx-31" value="" style="shape=or;whiteSpace=wrap;html=1;fontSize=16;rotation=-180;" parent="1" vertex="1">
          <mxGeometry x="565" y="340" width="22.5" height="30" as="geometry" />
        </mxCell>
        <mxCell id="6W1pRGpgZ7paX0P09RJx-32" value="" style="shape=or;whiteSpace=wrap;html=1;fontSize=16;rotation=-180;" parent="1" vertex="1">
          <mxGeometry x="565" y="390" width="22.5" height="30" as="geometry" />
        </mxCell>
        <mxCell id="6W1pRGpgZ7paX0P09RJx-33" value="videoModule" style="text;html=1;strokeColor=none;fillColor=none;align=center;verticalAlign=middle;whiteSpace=wrap;rounded=0;fontSize=16;" parent="1" vertex="1">
          <mxGeometry x="610" y="390" width="60" height="30" as="geometry" />
        </mxCell>
        <mxCell id="6W1pRGpgZ7paX0P09RJx-34" value="audioModule" style="text;html=1;strokeColor=none;fillColor=none;align=center;verticalAlign=middle;whiteSpace=wrap;rounded=0;fontSize=16;" parent="1" vertex="1">
          <mxGeometry x="610" y="340" width="60" height="30" as="geometry" />
        </mxCell>
        <mxCell id="6W1pRGpgZ7paX0P09RJx-49" style="edgeStyle=none;rounded=0;orthogonalLoop=1;jettySize=auto;html=1;exitX=0.5;exitY=0;exitDx=0;exitDy=0;entryX=0.615;entryY=0.991;entryDx=0;entryDy=0;entryPerimeter=0;fontSize=19;" parent="1" source="6W1pRGpgZ7paX0P09RJx-46" edge="1">
          <mxGeometry relative="1" as="geometry">
            <mxPoint x="188" y="520" as="sourcePoint" />
            <mxPoint x="191" y="429.01" as="targetPoint" />
          </mxGeometry>
        </mxCell>
        <mxCell id="6W1pRGpgZ7paX0P09RJx-46" value="server" style="rounded=1;whiteSpace=wrap;html=1;fontSize=19;" parent="1" vertex="1">
          <mxGeometry x="130" y="520" width="120" height="60" as="geometry" />
        </mxCell>
      </root>
    </mxGraphModel>
  </diagram>
</mxfile>
